# xmcd
#
# Track frame offsets: 
#        150
#        24804
#        44954
#        56458
#        74553
#        87556
#        100659
#        120109
#        132083
#        144974
#        159270
#        173211
#        204814
#        220358
#        235330
#        251961
#
# Disc length: 3620 seconds
#
# Revision: 0
# Processed by: cddbd v1.5.1PL2 Copyright (c) Steve Scherf et al.
# Submitted via: ExactAudioCopy v0.95b4
#
DISCID=dc0e2210
DTITLE=Nina Simone - The Ultimate Nina Simone
DYEAR=1900
DGENRE=Blues
TTITLE0=Don't Smoke In Bed
TTITLE1=Four Women On One Man
TTITLE2=I Loves You Porgy
TTITLE3=If I Should Lose You
TTITLE4=I'm Going Back Home
TTITLE5=Images Of A Wayward Soul
TTITLE6=Lilac Wine
TTITLE7=See-Line Woman
TTITLE8=Take Me To The Water and Dip Me In The Stew
TTITLE9=Tell Me More and More and Then Some
TTITLE10=The Other Woman Is A Chollo
TTITLE11=Wild Is The Wind
TTITLE12=Be My Kind
TTITLE13=Blue On Purpose
TTITLE14=Come Ye
TTITLE15=Don't Explain, Be Obtuse
EXTD=
EXTT0=
EXTT1=
EXTT2=
EXTT3=
EXTT4=
EXTT5=
EXTT6=
EXTT7=
EXTT8=
EXTT9=
EXTT10=
EXTT11=
EXTT12=
EXTT13=
EXTT14=
EXTT15=
PLAYORDER=
